<svg id="Component_1_1" data-name="Component 1 – 1" xmlns="http://www.w3.org/2000/svg" xmlns:xlink="http://www.w3.org/1999/xlink" width="39.973" height="22.356" viewBox="0 0 39.973 22.356">
  <defs>
    <clipPath id="clip-path">
      <rect id="Rectangle_1" data-name="Rectangle 1" width="39.973" height="22.356" transform="translate(0 0)" fill="none"/>
    </clipPath>
  </defs>
  <g id="Group_1" data-name="Group 1" transform="translate(0 0)" clip-path="url(#clip-path)">
    <path id="Path_1" data-name="Path 1" d="M38.216,8.816l-5.273-.7L29.918,2.823A4.616,4.616,0,0,0,25.923.507H20.156a1.016,1.016,0,0,0-1.013,1.017V13.036H1.017A1.017,1.017,0,0,0,0,14.053v3.1a1.017,1.017,0,0,0,1.017,1.017H2.966a4.545,4.545,0,0,0,9.062,0H27.837a4.545,4.545,0,0,0,9.062,0h1.045a2.031,2.031,0,0,0,2.03-2.03V10.828a2.03,2.03,0,0,0-1.758-2.012M7.5,20.208a2.4,2.4,0,1,1,2.4-2.4,2.4,2.4,0,0,1-2.4,2.4m21.72-12.23H22.646a.2.2,0,0,1-.2-.2l-.009-4.2a.2.2,0,0,1,.2-.2h3.286a1.74,1.74,0,0,1,1.507.874l1.964,3.429a.2.2,0,0,1-.177.3m3.151,12.23a2.4,2.4,0,1,1,2.4-2.4,2.4,2.4,0,0,1-2.4,2.4" fill="#edcf8b"/>
    <path id="Path_2" data-name="Path 2" d="M17.71,10.591V1.015A1.014,1.014,0,0,0,16.695,0H1.015A1.014,1.014,0,0,0,0,1.015v9.576a1.015,1.015,0,0,0,1.015,1.015h15.68a1.015,1.015,0,0,0,1.015-1.015" fill="#edcf8b"/>
  </g>
</svg>
