<svg id="Component_2_1" data-name="Component 2 – 1" xmlns="http://www.w3.org/2000/svg" xmlns:xlink="http://www.w3.org/1999/xlink" width="28.863" height="25.281" viewBox="0 0 28.863 25.281">
  <defs>
    <clipPath id="clip-path">
      <rect id="Rectangle_2" data-name="Rectangle 2" width="28.863" height="25.281" transform="translate(0 0)" fill="none"/>
    </clipPath>
  </defs>
  <g id="Group_2" data-name="Group 2" transform="translate(0 0)" clip-path="url(#clip-path)">
    <path id="Path_3" data-name="Path 3" d="M9.919,9.294H9.98a2.374,2.374,0,0,1,2.371,2.31h1.626a.848.848,0,0,0,.854-.846V5.547a.854.854,0,0,0-.854-.853H8.767a.853.853,0,0,0-.847.853V8.908a.339.339,0,0,0,.034.047,4.908,4.908,0,0,0,1.965.339" fill="#edcf8b"/>
    <path id="Path_4" data-name="Path 4" d="M4,5.423A2.711,2.711,0,1,0,1.29,2.712,2.711,2.711,0,0,0,4,5.423" fill="#edcf8b"/>
    <path id="Path_5" data-name="Path 5" d="M10.01,12.887A1.22,1.22,0,0,0,11.2,11.636a1.234,1.234,0,0,0-1.251-1.187c-.93.021-2.488-.227-2.872-.744a7.891,7.891,0,0,1-.979-1.886,2.741,2.741,0,0,0-5.306.957l-.122,6a1.37,1.37,0,0,0,.015.256L1.3,19.173.052,23.553a1.356,1.356,0,0,0,.931,1.676,1.333,1.333,0,0,0,.373.052,1.356,1.356,0,0,0,1.3-.983l1.334-4.663a1.362,1.362,0,0,0,.037-.575l-.527-3.5,1.9,3.767.384,4.711a1.355,1.355,0,1,0,2.7-.22l-.4-4.975a1.346,1.346,0,0,0-.141-.5L6,14.5l-.02-2.542a7.833,7.833,0,0,0,4.027.931" fill="#edcf8b"/>
    <path id="Path_6" data-name="Path 6" d="M24.861,5.423A2.711,2.711,0,1,0,22.15,2.712a2.711,2.711,0,0,0,2.711,2.711" fill="#edcf8b"/>
    <path id="Path_7" data-name="Path 7" d="M28.81,23.554l-1.253-4.381.623-4.145a1.36,1.36,0,0,0,.015-.255l-.122-6a2.741,2.741,0,0,0-5.306-.958,7.914,7.914,0,0,1-.979,1.887c-.386.518-1.908.763-2.872.743a1.22,1.22,0,0,0-.064,2.439,7.826,7.826,0,0,0,4.027-.932l-.02,2.543L20.917,18.34a1.4,1.4,0,0,0-.141.5l-.4,4.976a1.355,1.355,0,0,0,2.7.22l.384-4.711,1.9-3.767-.526,3.5a1.357,1.357,0,0,0,.037.574L26.2,24.3a1.355,1.355,0,0,0,2.606-.745" fill="#edcf8b"/>
    <path id="Path_8" data-name="Path 8" d="M16.688,14.242a.677.677,0,0,0-.958.958l.863.864H10.609a.678.678,0,0,0,0,1.355h5.985l-.863.863a.677.677,0,1,0,.958.958l2.019-2.02a.677.677,0,0,0,0-.958Z" fill="#edcf8b"/>
  </g>
</svg>
